<svg xmlns="http://www.w3.org/2000/svg" viewBox="0 0 337.98 118.87"><defs><style>.cls-1{fill:#1497d3;}.cls-2{font-size:53.55px;font-family:Tumbly;}</style></defs><title>Ativo 2</title><g id="Camada_2" data-name="Camada 2"><g id="Texto"><path class="cls-1" d="M0,10.92H22.48A46.64,46.64,0,0,1,56.7,25a46.64,46.64,0,0,1,14,34.09c0,13.59-4.73,25-14,34.23S36,107.05,22.48,107.05H0Zm4.85,91.65H22.48c12.38,0,22.6-4.11,30.9-12.31S65.77,71.55,65.77,59.11a42.33,42.33,0,0,0-12.65-31Q40.67,15.41,22.48,15.41H4.85Z"/><rect x="94.54" width="3.84" height="117.95"/><text class="cls-2" transform="translate(123.98 54.81)">diário</text><text class="cls-2" transform="translate(123.98 106.33)">escolar</text></g></g></svg>